<?xml version="1.0" encoding="utf-8"?>
<!-- Generator: Adobe Illustrator 27.9.4, SVG Export Plug-In . SVG Version: 9.03 Build 54784)  -->
<svg version="1.1" id="Capa_1" xmlns="http://www.w3.org/2000/svg" xmlns:xlink="http://www.w3.org/1999/xlink" x="0px" y="0px"
	 viewBox="0 0 595.28 595.28" style="enable-background:new 0 0 595.28 595.28;" xml:space="preserve">
<style type="text/css">
	.st0{fill:#F59D27;}
	.st1{fill:#333333;}
</style>
<g>
	<rect x="107" y="258" class="st0" width="360" height="62"/>
	<g>
		<path class="st1" d="M163.63,303.95v-30.1h2.84v30.1H163.63z M171.89,303.95l-6.75-30.1h2.84l6.75,30.1H171.89z M172.02,303.95
			l6.75-30.1h2.84l-6.75,30.1H172.02z M180.32,303.95v-30.1h2.84v30.1H180.32z"/>
		<path class="st1" d="M188.32,296.9v-23.05h2.84v23.05H188.32z M188.32,296.85h2.84c0,1.58,0.45,2.81,1.35,3.7
			c0.9,0.89,2.16,1.33,3.76,1.33v2.71c-1.58,0-2.97-0.32-4.17-0.97c-1.2-0.65-2.14-1.55-2.79-2.71
			C188.65,299.76,188.32,298.4,188.32,296.85z M204.14,296.85c0,1.55-0.33,2.9-0.99,4.06c-0.66,1.16-1.58,2.06-2.77,2.71
			c-1.19,0.64-2.59,0.97-4.19,0.97v-2.71c1.6,0,2.86-0.44,3.76-1.33c0.9-0.89,1.35-2.12,1.35-3.7H204.14z M201.3,296.9v-23.05h2.84
			v23.05H201.3z"/>
		<path class="st1" d="M210.85,295.91c0.2,1.86,0.79,3.33,1.76,4.39c0.97,1.06,2.25,1.59,3.83,1.59v2.71
			c-2.26,0-4.12-0.72-5.57-2.15c-1.45-1.43-2.33-3.43-2.64-5.98L210.85,295.91z M209.26,280.52c0-1.55,0.33-2.87,0.99-3.96
			c0.66-1.09,1.59-1.92,2.79-2.49c1.2-0.57,2.59-0.86,4.17-0.86v2.71c-1.61,0-2.86,0.41-3.76,1.23s-1.35,1.94-1.35,3.38H209.26z
			 M221.55,297.37c0-1.09-0.29-2.06-0.88-2.92c-0.59-0.86-1.35-1.68-2.28-2.45s-1.93-1.55-2.99-2.32c-1.06-0.77-2.06-1.61-2.99-2.49
			c-0.93-0.89-1.69-1.88-2.28-2.99c-0.59-1.1-0.88-2.36-0.88-3.76h2.84c0,1.06,0.29,2.03,0.88,2.9c0.59,0.88,1.35,1.7,2.28,2.47
			c0.93,0.77,1.93,1.55,2.99,2.32c1.06,0.77,2.06,1.61,2.99,2.49c0.93,0.89,1.69,1.88,2.28,2.97c0.59,1.09,0.88,2.35,0.88,3.78
			H221.55z M224.39,297.29c0,1.55-0.33,2.87-0.99,3.96c-0.66,1.09-1.58,1.92-2.77,2.49c-1.19,0.57-2.59,0.86-4.19,0.86v-2.71
			c1.61,0,2.86-0.41,3.76-1.23s1.35-1.94,1.35-3.38H224.39z M221.73,279.78c-0.14-1.35-0.65-2.33-1.5-2.95
			c-0.86-0.62-1.86-0.92-3.01-0.92v-2.71c1.26,0,2.41,0.27,3.46,0.8c1.05,0.53,1.91,1.24,2.58,2.13c0.67,0.89,1.08,1.91,1.23,3.05
			L221.73,279.78z"/>
		<path class="st1" d="M228.99,273.85h2.84v30.1h-2.84V273.85z M230.11,303.95v-2.71h12.21v2.71H230.11z M230.54,273.85h11.35v2.71
			h-11.35V273.85z M230.97,290.41v-2.84h8.77v2.84H230.97z"/>
		<path class="st1" d="M246.41,280.95c0-1.55,0.33-2.9,0.99-4.06c0.66-1.16,1.59-2.06,2.79-2.71s2.59-0.97,4.17-0.97v2.71
			c-1.61,0-2.86,0.44-3.76,1.31c-0.9,0.88-1.35,2.11-1.35,3.72H246.41z M246.41,296.9v-16h2.84v16H246.41z M246.41,296.85h2.84
			c0,1.58,0.45,2.81,1.35,3.7c0.9,0.89,2.16,1.33,3.76,1.33v2.71c-1.58,0-2.97-0.32-4.17-0.97c-1.2-0.65-2.14-1.55-2.79-2.71
			C246.74,299.76,246.41,298.4,246.41,296.85z M262.32,280.95h-2.84c0-1.61-0.45-2.84-1.35-3.72c-0.9-0.87-2.16-1.31-3.76-1.31
			v-2.71c1.61,0,3,0.32,4.19,0.97c1.19,0.65,2.11,1.55,2.77,2.71C261.99,278.04,262.32,279.4,262.32,280.95z M262.32,296.85
			c0,1.55-0.33,2.9-0.99,4.06c-0.66,1.16-1.58,2.06-2.77,2.71c-1.19,0.64-2.59,0.97-4.19,0.97v-2.71c1.61,0,2.86-0.44,3.76-1.33
			c0.9-0.89,1.35-2.12,1.35-3.7H262.32z M259.48,296.9v-16h2.84v16H259.48z"/>
		<path class="st1" d="M274.57,280.9c0-1.55,0.33-2.9,0.99-4.06c0.66-1.16,1.59-2.06,2.79-2.71c1.2-0.65,2.59-0.97,4.17-0.97v2.71
			c-1.61,0-2.86,0.44-3.76,1.31c-0.9,0.88-1.35,2.11-1.35,3.72H274.57z M274.57,296.9v-16h2.84v16H274.57z M274.57,296.9h2.84
			c0,1.58,0.45,2.81,1.35,3.7c0.9,0.89,2.16,1.33,3.76,1.33v2.71c-1.58,0-2.97-0.32-4.17-0.97c-1.2-0.65-2.14-1.55-2.79-2.71
			C274.9,299.8,274.57,298.45,274.57,296.9z M288.07,281.85c-0.2-1.86-0.79-3.33-1.76-4.39s-2.25-1.59-3.83-1.59v-2.71
			c2.26,0,4.12,0.72,5.57,2.15c1.45,1.43,2.33,3.43,2.64,5.98L288.07,281.85z M288.07,295.95l2.62,0.56
			c-0.32,2.55-1.2,4.54-2.64,5.98c-1.45,1.43-3.3,2.15-5.57,2.15v-2.71c1.58,0,2.85-0.53,3.83-1.59S287.87,297.82,288.07,295.95z"/>
		<path class="st1" d="M294.35,280.95c0-1.55,0.33-2.9,0.99-4.06c0.66-1.16,1.59-2.06,2.8-2.71c1.2-0.65,2.59-0.97,4.17-0.97v2.71
			c-1.61,0-2.86,0.44-3.76,1.31c-0.9,0.88-1.35,2.11-1.35,3.72H294.35z M294.35,296.9v-16h2.84v16H294.35z M294.35,296.85h2.84
			c0,1.58,0.45,2.81,1.35,3.7c0.9,0.89,2.16,1.33,3.76,1.33v2.71c-1.58,0-2.97-0.32-4.17-0.97c-1.2-0.65-2.14-1.55-2.8-2.71
			C294.68,299.76,294.35,298.4,294.35,296.85z M310.26,280.95h-2.84c0-1.61-0.45-2.84-1.35-3.72c-0.9-0.87-2.16-1.31-3.76-1.31
			v-2.71c1.6,0,3,0.32,4.19,0.97c1.19,0.65,2.11,1.55,2.77,2.71C309.93,278.04,310.26,279.4,310.26,280.95z M310.26,296.85
			c0,1.55-0.33,2.9-0.99,4.06c-0.66,1.16-1.58,2.06-2.77,2.71c-1.19,0.64-2.59,0.97-4.19,0.97v-2.71c1.6,0,2.86-0.44,3.76-1.33
			c0.9-0.89,1.35-2.12,1.35-3.7H310.26z M307.42,296.9v-16h2.84v16H307.42z"/>
		<path class="st1" d="M314.78,280.9c0-1.55,0.33-2.9,0.99-4.06c0.66-1.16,1.59-2.06,2.79-2.71c1.2-0.65,2.59-0.97,4.17-0.97v2.71
			c-1.61,0-2.86,0.44-3.76,1.31c-0.9,0.88-1.35,2.11-1.35,3.72H314.78z M314.78,296.9v-16h2.84v16H314.78z M314.78,296.9h2.84
			c0,1.58,0.45,2.81,1.35,3.7c0.9,0.89,2.16,1.33,3.76,1.33v2.71c-1.58,0-2.97-0.32-4.17-0.97c-1.2-0.65-2.14-1.55-2.79-2.71
			C315.11,299.8,314.78,298.45,314.78,296.9z M328.28,281.85c-0.2-1.86-0.79-3.33-1.76-4.39s-2.25-1.59-3.83-1.59v-2.71
			c2.26,0,4.12,0.72,5.57,2.15c1.45,1.43,2.33,3.43,2.64,5.98L328.28,281.85z M328.28,295.95l2.62,0.56
			c-0.32,2.55-1.2,4.54-2.64,5.98c-1.45,1.43-3.3,2.15-5.57,2.15v-2.71c1.58,0,2.85-0.53,3.83-1.59S328.08,297.82,328.28,295.95z"/>
		<path class="st1" d="M334.56,280.95c0-1.55,0.33-2.9,0.99-4.06c0.66-1.16,1.59-2.06,2.8-2.71c1.2-0.65,2.59-0.97,4.17-0.97v2.71
			c-1.61,0-2.86,0.44-3.76,1.31c-0.9,0.88-1.35,2.11-1.35,3.72H334.56z M334.56,296.9v-16h2.84v16H334.56z M334.56,296.85h2.84
			c0,1.58,0.45,2.81,1.35,3.7c0.9,0.89,2.16,1.33,3.76,1.33v2.71c-1.58,0-2.97-0.32-4.17-0.97c-1.2-0.65-2.14-1.55-2.8-2.71
			C334.88,299.76,334.56,298.4,334.56,296.85z M350.47,280.95h-2.84c0-1.61-0.45-2.84-1.35-3.72c-0.9-0.87-2.16-1.31-3.76-1.31
			v-2.71c1.6,0,3,0.32,4.19,0.97c1.19,0.65,2.11,1.55,2.77,2.71C350.14,278.04,350.47,279.4,350.47,280.95z M350.47,296.85
			c0,1.55-0.33,2.9-0.99,4.06c-0.66,1.16-1.58,2.06-2.77,2.71c-1.19,0.64-2.59,0.97-4.19,0.97v-2.71c1.6,0,2.86-0.44,3.76-1.33
			c0.9-0.89,1.35-2.12,1.35-3.7H350.47z M347.63,296.9v-16h2.84v16H347.63z"/>
		<path class="st1" d="M355.41,303.95v-30.1h2.84v30.1H355.41z M368.09,303.95l-12.08-30.1h3.1l12.04,30.1H368.09z M368.91,303.95
			v-30.1h2.84v30.1H368.91z"/>
		<path class="st1" d="M376.91,296.9v-23.05h2.84v23.05H376.91z M376.91,296.85h2.84c0,1.58,0.45,2.81,1.35,3.7
			c0.9,0.89,2.16,1.33,3.76,1.33v2.71c-1.58,0-2.97-0.32-4.17-0.97c-1.2-0.65-2.14-1.55-2.79-2.71
			C377.24,299.76,376.91,298.4,376.91,296.85z M392.73,296.85c0,1.55-0.33,2.9-0.99,4.06c-0.66,1.16-1.58,2.06-2.77,2.71
			c-1.19,0.64-2.59,0.97-4.19,0.97v-2.71c1.6,0,2.86-0.44,3.76-1.33c0.9-0.89,1.35-2.12,1.35-3.7H392.73z M389.9,296.9v-23.05h2.84
			v23.05H389.9z"/>
		<path class="st1" d="M395.31,276.56v-2.71h16.77v2.71H395.31z M402.28,303.95v-30.1h2.84v30.1H402.28z"/>
	</g>
</g>
</svg>
